<svg xmlns="http://www.w3.org/2000/svg" xmlns:xlink="http://www.w3.org/1999/xlink" width="96" zoomAndPan="magnify" viewBox="0 0 72 30.000001" height="40" preserveAspectRatio="xMidYMid meet" version="1.0"><defs><g/></defs><g fill="#ffffff" fill-opacity="1"><g transform="translate(3.128905, 22.250695)"><g><path d="M 12.9375 -16.0625 C 12.351562 -16.03125 11.921875 -15.976562 11.640625 -15.90625 C 11.367188 -15.832031 11.164062 -15.664062 11.03125 -15.40625 C 10.90625 -15.144531 10.84375 -14.742188 10.84375 -14.203125 L 10.84375 -4.25 C 10.84375 -2.96875 10.382812 -1.894531 9.46875 -1.03125 C 8.5625 -0.175781 7.128906 0.25 5.171875 0.25 C 3.628906 0.25 2.410156 -0.0390625 1.515625 -0.625 C 0.628906 -1.207031 0.1875 -1.992188 0.1875 -2.984375 C 0.1875 -3.628906 0.40625 -4.171875 0.84375 -4.609375 C 1.28125 -5.046875 1.816406 -5.265625 2.453125 -5.265625 C 3.035156 -5.265625 3.546875 -5.0625 3.984375 -4.65625 C 4.421875 -4.25 4.640625 -3.78125 4.640625 -3.25 C 4.640625 -2.957031 4.582031 -2.710938 4.46875 -2.515625 C 4.363281 -2.328125 4.222656 -2.132812 4.046875 -1.9375 C 3.835938 -1.695312 3.734375 -1.515625 3.734375 -1.390625 C 3.734375 -1.171875 3.835938 -0.984375 4.046875 -0.828125 C 4.265625 -0.679688 4.507812 -0.609375 4.78125 -0.609375 C 5.15625 -0.609375 5.4375 -0.738281 5.625 -1 C 5.820312 -1.269531 5.921875 -1.664062 5.921875 -2.1875 L 5.921875 -14.203125 C 5.921875 -14.742188 5.851562 -15.140625 5.71875 -15.390625 C 5.582031 -15.640625 5.347656 -15.8125 5.015625 -15.90625 C 4.691406 -16 4.1875 -16.050781 3.5 -16.0625 L 3.5 -16.59375 L 12.9375 -16.59375 Z M 12.9375 -16.0625 "/></g></g></g><g fill="#ffffff" fill-opacity="1"><g transform="translate(16.543522, 22.250695)"><g><path d="M 5.84375 -11.671875 C 7.363281 -11.671875 8.492188 -11.421875 9.234375 -10.921875 C 9.984375 -10.421875 10.359375 -9.75 10.359375 -8.90625 L 10.359375 -2.328125 C 10.359375 -1.878906 10.394531 -1.582031 10.46875 -1.4375 C 10.539062 -1.300781 10.648438 -1.234375 10.796875 -1.234375 C 11.023438 -1.234375 11.242188 -1.40625 11.453125 -1.75 L 11.84375 -1.484375 C 11.5625 -0.941406 11.164062 -0.515625 10.65625 -0.203125 C 10.15625 0.0976562 9.585938 0.25 8.953125 0.25 C 8.304688 0.25 7.757812 0.109375 7.3125 -0.171875 C 6.875 -0.460938 6.597656 -0.898438 6.484375 -1.484375 C 5.703125 -0.835938 5.050781 -0.382812 4.53125 -0.125 C 4.019531 0.125 3.472656 0.25 2.890625 0.25 C 2.140625 0.25 1.53125 0.0195312 1.0625 -0.4375 C 0.59375 -0.90625 0.359375 -1.488281 0.359375 -2.1875 C 0.359375 -3.1875 0.875 -4.070312 1.90625 -4.84375 C 2.945312 -5.613281 4.472656 -6.285156 6.484375 -6.859375 L 6.484375 -9.03125 C 6.484375 -9.675781 6.363281 -10.113281 6.125 -10.34375 C 5.894531 -10.582031 5.5625 -10.703125 5.125 -10.703125 C 4.726562 -10.703125 4.394531 -10.609375 4.125 -10.421875 C 3.851562 -10.234375 3.71875 -10.019531 3.71875 -9.78125 C 3.71875 -9.664062 3.738281 -9.570312 3.78125 -9.5 C 3.832031 -9.425781 3.90625 -9.347656 4 -9.265625 C 4.132812 -9.140625 4.238281 -9.007812 4.3125 -8.875 C 4.382812 -8.75 4.421875 -8.566406 4.421875 -8.328125 C 4.421875 -7.890625 4.234375 -7.507812 3.859375 -7.1875 C 3.484375 -6.863281 3.046875 -6.703125 2.546875 -6.703125 C 2.015625 -6.703125 1.550781 -6.890625 1.15625 -7.265625 C 0.769531 -7.648438 0.578125 -8.097656 0.578125 -8.609375 C 0.578125 -9.160156 0.8125 -9.671875 1.28125 -10.140625 C 1.75 -10.609375 2.390625 -10.976562 3.203125 -11.25 C 4.015625 -11.53125 4.894531 -11.671875 5.84375 -11.671875 Z M 4.265625 -3.078125 C 4.265625 -2.722656 4.359375 -2.425781 4.546875 -2.1875 C 4.734375 -1.957031 4.972656 -1.84375 5.265625 -1.84375 C 5.648438 -1.84375 6.054688 -2.050781 6.484375 -2.46875 L 6.484375 -5.875 C 5.835938 -5.5625 5.304688 -5.175781 4.890625 -4.71875 C 4.472656 -4.257812 4.265625 -3.710938 4.265625 -3.078125 Z M 4.265625 -3.078125 "/></g></g></g><g fill="#ffffff" fill-opacity="1"><g transform="translate(28.429887, 22.250695)"><g><path d="M 8.5625 -11.671875 C 9.132812 -11.671875 9.625 -11.519531 10.03125 -11.21875 C 10.445312 -10.925781 10.859375 -10.4375 11.265625 -9.75 C 11.828125 -10.46875 12.347656 -10.96875 12.828125 -11.25 C 13.304688 -11.53125 13.867188 -11.671875 14.515625 -11.671875 C 15.640625 -11.671875 16.460938 -11.28125 16.984375 -10.5 C 17.515625 -9.726562 17.78125 -8.785156 17.78125 -7.671875 L 17.78125 -2.15625 C 17.78125 -1.6875 17.804688 -1.332031 17.859375 -1.09375 C 17.921875 -0.863281 18.015625 -0.710938 18.140625 -0.640625 C 18.273438 -0.566406 18.460938 -0.53125 18.703125 -0.53125 L 18.703125 0 L 12.9375 0 L 12.9375 -0.53125 C 13.144531 -0.550781 13.304688 -0.597656 13.421875 -0.671875 C 13.535156 -0.742188 13.617188 -0.890625 13.671875 -1.109375 C 13.734375 -1.335938 13.765625 -1.6875 13.765625 -2.15625 L 13.765625 -8.90625 C 13.765625 -9.34375 13.691406 -9.628906 13.546875 -9.765625 C 13.398438 -9.898438 13.21875 -9.96875 13 -9.96875 C 12.457031 -9.96875 11.988281 -9.640625 11.59375 -8.984375 L 11.59375 -1.390625 C 11.59375 -1.015625 11.617188 -0.78125 11.671875 -0.6875 C 11.734375 -0.601562 11.863281 -0.550781 12.0625 -0.53125 L 12.0625 0 L 7.203125 0 L 7.203125 -0.53125 C 7.398438 -0.550781 7.523438 -0.609375 7.578125 -0.703125 C 7.640625 -0.796875 7.671875 -1.039062 7.671875 -1.4375 L 7.671875 -8.9375 C 7.671875 -9.363281 7.613281 -9.640625 7.5 -9.765625 C 7.382812 -9.898438 7.238281 -9.96875 7.0625 -9.96875 C 6.570312 -9.96875 6.054688 -9.476562 5.515625 -8.5 L 5.515625 -2.140625 C 5.515625 -1.671875 5.539062 -1.320312 5.59375 -1.09375 C 5.644531 -0.863281 5.726562 -0.710938 5.84375 -0.640625 C 5.957031 -0.566406 6.128906 -0.53125 6.359375 -0.53125 L 6.359375 0 L 0.4375 0 L 0.4375 -0.53125 C 0.84375 -0.53125 1.117188 -0.617188 1.265625 -0.796875 C 1.410156 -0.972656 1.484375 -1.351562 1.484375 -1.9375 L 1.484375 -9.484375 C 1.484375 -9.953125 1.394531 -10.285156 1.21875 -10.484375 C 1.039062 -10.691406 0.78125 -10.804688 0.4375 -10.828125 L 0.4375 -11.359375 L 5.515625 -11.359375 L 5.515625 -9.75 L 5.5625 -9.75 C 6.03125 -10.4375 6.507812 -10.925781 7 -11.21875 C 7.488281 -11.519531 8.007812 -11.671875 8.5625 -11.671875 Z M 8.5625 -11.671875 "/></g></g></g><g fill="#ffffff" fill-opacity="1"><g transform="translate(47.399566, 22.250695)"><g><path d="M 3.5625 -17.328125 C 4.175781 -17.328125 4.691406 -17.113281 5.109375 -16.6875 C 5.535156 -16.269531 5.75 -15.753906 5.75 -15.140625 C 5.75 -14.546875 5.535156 -14.03125 5.109375 -13.59375 C 4.691406 -13.164062 4.175781 -12.953125 3.5625 -12.953125 C 2.96875 -12.953125 2.457031 -13.164062 2.03125 -13.59375 C 1.601562 -14.03125 1.390625 -14.546875 1.390625 -15.140625 C 1.390625 -15.753906 1.601562 -16.269531 2.03125 -16.6875 C 2.457031 -17.113281 2.96875 -17.328125 3.5625 -17.328125 Z M 5.625 -2.140625 C 5.625 -1.671875 5.65625 -1.328125 5.71875 -1.109375 C 5.789062 -0.890625 5.898438 -0.742188 6.046875 -0.671875 C 6.191406 -0.597656 6.429688 -0.550781 6.765625 -0.53125 L 6.765625 0 L 0.3125 0 L 0.3125 -0.53125 C 0.6875 -0.550781 0.957031 -0.585938 1.125 -0.640625 C 1.300781 -0.703125 1.421875 -0.84375 1.484375 -1.0625 C 1.554688 -1.289062 1.59375 -1.65625 1.59375 -2.15625 L 1.59375 -9.78125 C 1.59375 -10.113281 1.488281 -10.351562 1.28125 -10.5 C 1.070312 -10.644531 0.75 -10.753906 0.3125 -10.828125 L 0.3125 -11.359375 L 5.625 -11.359375 Z M 5.625 -2.140625 "/></g></g></g><g fill="#ffffff" fill-opacity="1"><g transform="translate(54.482868, 22.250695)"><g><path d="M 5.75 -2.15625 C 5.75 -1.65625 5.773438 -1.296875 5.828125 -1.078125 C 5.890625 -0.859375 5.992188 -0.710938 6.140625 -0.640625 C 6.296875 -0.566406 6.535156 -0.53125 6.859375 -0.53125 L 6.859375 0 L 0.34375 0 L 0.34375 -0.53125 C 0.851562 -0.550781 1.207031 -0.640625 1.40625 -0.796875 C 1.613281 -0.960938 1.71875 -1.328125 1.71875 -1.890625 L 1.71875 -14.484375 C 1.71875 -14.972656 1.675781 -15.320312 1.59375 -15.53125 C 1.519531 -15.738281 1.394531 -15.875 1.21875 -15.9375 C 1.039062 -16.007812 0.75 -16.050781 0.34375 -16.0625 L 0.34375 -16.59375 L 5.75 -16.59375 Z M 5.75 -2.15625 "/></g></g></g><g fill="#ffffff" fill-opacity="1"><g transform="translate(61.78449, 22.250695)"><g><path d="M 3.546875 -3.953125 C 4.160156 -3.953125 4.675781 -3.738281 5.09375 -3.3125 C 5.519531 -2.894531 5.734375 -2.378906 5.734375 -1.765625 C 5.734375 -1.171875 5.519531 -0.660156 5.09375 -0.234375 C 4.675781 0.191406 4.160156 0.40625 3.546875 0.40625 C 2.941406 0.40625 2.425781 0.191406 2 -0.234375 C 1.570312 -0.660156 1.359375 -1.171875 1.359375 -1.765625 C 1.359375 -2.378906 1.570312 -2.894531 2 -3.3125 C 2.425781 -3.738281 2.941406 -3.953125 3.546875 -3.953125 Z M 3.546875 -3.953125 "/></g></g></g></svg>